<svg xmlns="http://www.w3.org/2000/svg" viewBox="0 0 636.59 99.62"><defs><style>.cls-1{fill:#a6bfc8;}.cls-2{font-size:30px;fill:#707070;font-family:JosefinSans-SemiBold, Josefin Sans;font-weight:600;}</style></defs><g id="Lag_2" data-name="Lag 2"><g id="Hår"><path class="cls-1" d="M586.86,76.75c-2.12,4.74-4.7,9.27-6.81,13.51l2.53-5.08a40.67,40.67,0,0,1-4.35,6.87c-.1-1,1.18-2.47.71-3.24,3.27-6.11,7.47-11.74,11.52-17.18C590.71,74.84,587.72,75.06,586.86,76.75Z"/><path class="cls-1" d="M573.86,98.42c.32-.62.62-1.22.92-1.82A7.22,7.22,0,0,1,573.86,98.42Z"/><path class="cls-1" d="M603.91,33.17a14.88,14.88,0,0,1,.86-1.83A7.28,7.28,0,0,1,603.91,33.17Z"/><path class="cls-1" d="M587.61,66.74a10.29,10.29,0,0,1,.34-1.27q2.61-4,5.46-8.07C591.43,60.39,590.17,64.07,587.61,66.74Z"/><path class="cls-1" d="M584.48,68.94a37.22,37.22,0,0,1-5.6,8A67.51,67.51,0,0,0,584.48,68.94Z"/><path class="cls-1" d="M587.82,38.34l-.57.52-.35.29a1.33,1.33,0,0,0-.31-.46c.19-.13.63-.54.75-.59C587.57,38.25,586.66,39.18,587.82,38.34Z"/><path class="cls-1" d="M603.52,33.9h.09l-.24.63-.13.12A3.32,3.32,0,0,1,603.52,33.9Z"/><path class="cls-1" d="M588.19,38.28,587,39.43a.81.81,0,0,0-.05-.27l.34-.3C587.69,38.53,587.45,38.87,588.19,38.28Z"/><path class="cls-1" d="M585.19,42s1-.58,1.3-.71c-.84.65-1.62,1.19-2.11,1.55.24-.11.24-.07.69-.25l-1.05.57c.31-.37.72-.8,1.39-1.5C585.43,41.73,585.38,41.83,585.19,42Z"/><path class="cls-1" d="M543.1,35.1c4.35.16,9.33,2,13.64.57-5-1-11.7-2.06-12.08-4.68-.19-1.3,1.43-1.13,3.58-.69,1.08.21,2.3.51,3.49.76a21.43,21.43,0,0,0,3.29.39l-1-.58c.49.29,1,.58,1.43.3-1-.57-2.87-1.16-3.36-2l.9-.55a18.72,18.72,0,0,0-4.59-2.42,14.73,14.73,0,0,1-4.41-2.6c5.37,3.79,12.68,5.12,20.21,4.88a72.91,72.91,0,0,0,11.35-1.42c.94-.16,1.88-.37,2.8-.59l1.88-.4c.67-.16,1.34-.3,2-.48l4.06-1.1c.69-.19,1.35-.33,2-.56l2.09-.7c1.36-.51,2.74-1,4.14-1.61s3-1.43,4.64-2.19c3.12-1.49,6.67-3.35,10.43-5.31s7.83-4.2,12.2-6.57L635.51,0a2.41,2.41,0,0,1,1.08,1.3,2.2,2.2,0,0,1-.14.53c-.13.27-.37.68-.61,1.08-.48.83-1.11,1.82-1.79,2.89-1.38,2.14-3,4.55-4.43,6.61-3.4,6.21-7,12.68-10,19.35-2,3.72-4.19,7.53-6.53,11.38s-4.66,7.67-7.05,11.49l-1.77,2.87L603.34,59l-1.82,2.86c-1.2,1.93-2.38,3.91-3.48,6-.89,1.66-4.3,2.71-2.61-1.7a52,52,0,0,1,4.84-10.69c.44.78-.9,2.16-.84,3.2.47-.57.9-1.11,1.32-1.65l.6-.8.15-.21.24-.37.48-.73c1.26-2,2.5-4,3.75-6.12l-2.51,4.36-1.24,2.19-.89,1.61.43-.79.8-1.4c.54-.93,1.09-1.87,1.64-2.83l3.4-5.77c2.29-3.89,4.62-7.86,6.74-11.68a45.28,45.28,0,0,1,4.18-4.88c1.58-1.79,3-3.77,2.83-5.12l-5.94,8.28q-2.92,4-5.55,7.87c-1.78,2.56-3.47,5.05-5.05,7.52l-2.35,3.69-1.13,1.84-1.06,1.79s0-.05,0-.06c-1.48,2.7-3,5.07-4.42,7.66a10.1,10.1,0,0,1,1.25-2.38,90.26,90.26,0,0,0-7.25,10.7c1.8-5.91,4.81-11.56,8.06-17.09,4.52-7.69,9.92-16.16,13.9-23.43A34.71,34.71,0,0,0,606.85,38a23.94,23.94,0,0,1-4.66,6.44c3.92-6.53,8.28-13.13,13.28-20.47a6.65,6.65,0,0,0-.33,1.16,58.15,58.15,0,0,0,5.15-7.35l2-3.29,1-1.66.55-.85.29-.44.14-.21v-.09l.1-.56a3.16,3.16,0,0,0-.1.56v.09s-.09.13-.13.19l-.3.43-.59.84-1.16,1.67c-.76,1.09-1.52,2.17-2.27,3.26L615.47,24a28,28,0,0,1,3.35-5.62A73.1,73.1,0,0,0,614,24.17l-4.25,6.53a32,32,0,0,0,3.66-7.9c-1.82,2.42-3.36,4.6-4.82,6.74l-4.27,6.25c1.14-2,2.29-4.09,3.43-6.13,2.65-3.78,5.44-7.76,8.15-11.76l-.15.33.23-.4.12-.19-.15,0-1.95,0-.64.26a68.1,68.1,0,0,0-6.55,3.59c-.26.12-.53.22-.78.33,1-.69,1.86-1.32,1.17-1.2-1.3.06-3.9,1.28-6.32,2.24-1.22.5-2.43,1-3.56,1.35a15.06,15.06,0,0,1-3.18.64,11.71,11.71,0,0,0-2.13.56c-.82.26-1.76.62-2.71,1a1.18,1.18,0,0,0-1,.41l-1.21.48a18.61,18.61,0,0,0-2.8.84c.89-.22,1.83-.52,2.8-.84l1.07-.35a3,3,0,0,1-1.19.81l4.65-1.1,4.72-1.37c1.58-.49,3.17-1,4.78-1.58s3.23-1.21,4.94-1.88l-2.32,1.52,3.1-1.85c1.77-.77,3.64-1.6,5.63-2.56l.9-.32c-.51.26-1.09.6-1.78,1l-1.24.83.46-.19c.87-.23,1.81-.51,2.78-.82.05,0,.15-.06.15,0l-.13.22-.28.44-.53.87-1,1.72c-1.37,2.29-2.66,4.58-4,6.92-3.6,5.13-6.92,9.83-9.85,14.22a69.59,69.59,0,0,0,6.42-8.09c-2,3.57-4.14,7.3-6.38,11.05l-1.7,2.8-1.7,2.7Q593,54.69,591.36,57c-.1-1.61.29-3.53-.28-4.84-.51-.24-1.9,1.74-1.48.36q.24-1,.54-1.83c.19-.55.44-1.16.57-1.51.31-.8.63-1.49.86-2.11.46-1.24.55-2.26-1-2.79a30.11,30.11,0,0,0-3.21.81A3.38,3.38,0,0,1,584.9,45a4.81,4.81,0,0,1-.09-1.32,2.83,2.83,0,0,0,.45-.48c.1,0-.13,0-.4.06a2.09,2.09,0,0,1,.77-1.2l.55-.51,1.37-.93c-.36.18-.62.3-.8.37.48-.48.92-1,1.33-1.43l1.09-1,.54-.49.27-.25.12-.12.06-.06-1.47,1.14a5.59,5.59,0,0,0-.58.15l-.42.12c.26-.31.69-.79,1.33-1.48a10.78,10.78,0,0,1-2.91,1.95,6.33,6.33,0,0,0-1.45.34l0,.08c-.45.11-.91.19-1.39.26v-.6c-.25.36-.39.4-.5.57-.34-.17-.67-.48-1.12-.78-.08.16-.2.77-.34.81H581l-.14,0-.36.06-1.45.28c-1.13.1-2.28.17-3.44.24-1.95.13-3.9.07-5.82.07s-3.83-.17-5.73-.37a2.36,2.36,0,0,1-.21-.78c-.57.38-1.39.11-1.91.32a.41.41,0,0,0,.14-.36c-1.71.53-2-.17-3.57-.42-.35,0-.67.29-1,.37l-.5-.09c-1.72-1.25-3.43-1-5.36-1.07-1.9-.46-3.78-.93-5.65-1.46C544.53,36.63,544.06,35.75,543.1,35.1Z"/><path class="cls-1" d="M586.52,38.64a3.64,3.64,0,0,0-1-.57c.33-.07.75-.28,1-.31S587,37.9,586.52,38.64Z"/><path class="cls-1" d="M584,45a11,11,0,0,1-1.24-.18,11.37,11.37,0,0,0,.86-1.11l.09,0c.07.13-.33.4-.46.56S583.19,44.58,584,45Z"/><path class="cls-1" d="M587.25,38.86l-.34.3h0Z"/><path class="cls-1" d="M590.35,55.58l-.23.35c.42-1,.87-2,1.34-2.94A15.07,15.07,0,0,1,590.35,55.58Z"/><path class="cls-1" d="M584,65.24l-3,5.87a45,45,0,0,1-5.11,6.58C578.52,73.51,581.25,69.39,584,65.24Z"/><path class="cls-1" d="M580.33,49.81c-.66.67-1.39,1.32-2.09,2l1.52-2.32C579.84,49.72,580.15,49.73,580.33,49.81Z"/><path class="cls-1" d="M594.26,47.64l-.3.54c.1-.51.18-1,.25-1.49C594.25,46.88,594.23,47.31,594.26,47.64Z"/><path class="cls-1" d="M574.23,57.65,575.4,56a5.3,5.3,0,0,0-.16,1.29A2.35,2.35,0,0,0,574.23,57.65Z"/><path class="cls-1" d="M569.11,66.91c-.47.81-.94,1.58-1.44,2.3l1.43-2.95C569.15,66.58,569.22,66.84,569.11,66.91Z"/><path class="cls-1" d="M92.25,58.4c-19.61-5.32-39-12.1-56.43-18.76L46.3,43.51c3.49,1.28,7,2.63,10.5,3.76-1.32-.45-2.62-.87-3.88-1.33l-3.73-1.42-7.25-2.85c-2.4-1-4.81-1.92-7.25-3l-7.47-3.45a55.85,55.85,0,0,1,6.5,2.31,18.92,18.92,0,0,0,5.47,1.58C64.5,49,90.24,58,115.67,65.46a44.9,44.9,0,0,1-7.15-1.16,55.23,55.23,0,0,1-5.87-2A100.47,100.47,0,0,0,92.25,58.4Z"/><path class="cls-1" d="M0,22.21l7.31,3.32C4.73,24.43,2.2,23.34,0,22.21Z"/><path class="cls-1" d="M269,83.77c3.08.22,6.17.45,9.14.74C275.08,84.38,272,84.06,269,83.77Z"/><path class="cls-1" d="M127.68,63.46l4.86.79,9.06,2.23c3,.74,6.07,1.53,9.15,2.19,6.14,1.35,12.31,2.83,18.57,4.13-6.82-1.38-13.87-2.77-20.93-4.14C141.36,67.13,134.35,65.5,127.68,63.46Z"/><path class="cls-1" d="M115.08,58.57A302,302,0,0,1,79.42,47.22C90.63,51.45,102.7,55.19,115.08,58.57Z"/><path class="cls-1" d="M363.06,81.37c-.05-.15.18-.27.53-.36a5.05,5.05,0,0,0,1-.18c5,.2,9.95.37,14.9.39-1.23.12-2.36.44-3.62.49C370.36,81.58,369.21,80.92,363.06,81.37Z"/><path class="cls-1" d="M265.54,83.46l-.33.05-3.13-.22-.37-.09C263,83.28,264.26,83.35,265.54,83.46Z"/><path class="cls-1" d="M356.71,81.19a1.21,1.21,0,0,0-.62-.8c2.81.17,5.62.31,8.42.44-.34.06-.66.11-.92.18C361.72,81.2,358.8,80.88,356.71,81.19Z"/><path class="cls-1" d="M292.43,74.6a21.22,21.22,0,0,0-4.35.33c-4.68-.8-9.33-1.69-14.85-2.5-.87,0-2.69-.12-4.43,0-1-.34-2.07-.65-3.21-.94l18.48,2.08,19,2C299.6,75.33,296.08,75,292.43,74.6Z"/><path class="cls-1" d="M580.09,41.41a138.33,138.33,0,0,1-23,10.77c-8.11,3.06-16.31,5.71-23.74,8.63a253.94,253.94,0,0,0,28.31-8.36c4.31-1.52,8.1-3,11.08-4s5.07-1.62,6-1.39,0,1.11-2.24,2.39a80.05,80.05,0,0,1-9.66,4.63c-8.05,3.36-18.49,6.49-25.53,8.7,1.95-.32,2-.31,3.89-.68a21.84,21.84,0,0,0-5.46,1.47C543.65,63,551,61.05,553.36,61l-3.11,1.75a112.32,112.32,0,0,0,19.06-5.27c7-2.49,13.76-5.54,18.75-7.36-5.89,2.55-12,5.08-18.43,7.43s-13.09,4.49-20,6.53c-13.74,4-28.29,7.43-43.13,10.64L461.6,84.33c-15.05,3.16-30.12,6-44.84,8.06-8.21,1.27-16.32,2.4-24.33,3.33s-15.94,1.62-23.73,2.17c-15.57,1.07-30.62,1.51-45.13,1.73-5.48-.05-18.51-1.27-27.77-2.37l-24.71-1.73c-8.23-.54-16.43-1.17-24.62-1.64-4.35-.34-8.67-.83-13-1.32s-8.62-1-12.91-1.59c-8.59-1.25-17.18-2.48-25.8-4C177.5,84,160,80.35,141.7,76.52c-7.31-1.6-16.72-6.26,1.35-2.88,3.74.68,7.52,1.2,11.28,1.84s7.54,1.27,11.31,1.94,7.56,1.22,11.35,1.87,7.55,1.36,11.35,1.94c-1.9.52-9-1.25-12.48-1.31l8,1.78c2.59.54,5.13,1,7.66,1.47,5.07.91,10.11,1.85,15.62,2.59-7.35-1-14.66-2.25-22-3.37,18.3,3,38.56,6,58.7,8.09a99.51,99.51,0,0,1,10.84,2.24A44.61,44.61,0,0,0,268,93.87c-26.11-3.65-52.92-8.12-79.64-12.64a.49.49,0,0,0,.14,0c-3-.45-5.89-1-8.75-1.49l-8.49-1.56c-5.62-1-11.15-2.19-16.88-3.34,3.58.62,7.23,1.23,10.34,2-4.13-1-8.25-2-12.36-3l-6.17-1.43L140,70.89l-12.25-3-12.19-3.21c23.26,4.64,47.72,9.56,72.38,13.77s49.49,7.77,73.25,9.91c-6.59-1.44-14.36-2.14-21.9-3S224.44,83.64,218.77,82c21.65,3.07,43.42,5.82,65.71,8.37-1.67-.07-3.29-.11-4.93-.15,6.88,1.15,14,1.84,21.19,2.48s14.34,1.06,21.28,1.68l3.73.34L322,94.33c-12.76-1.21-25.22-2.64-37.54-4,5.68.23,11.69.81,18.86,1.61-3.84-.86-9.41-1.64-15-2.4-7.35-.7-14.69-1.56-22-2.39,5.63.55,11.23,1,16.7,1.41s10.82.6,15.94.77c-15.21-2-30.92-3.52-46.18-5.66,8.41.93,16.84,1.69,25.25,2.47,14.08,1.66,28.27,3.27,42.69,4.51l-1.66-.07,3.29.22q8.46.7,17,1.21c5.13.22,10.19.08,15.2-.18l2.54,0c-1.61.22-2.4.45.7.64,13.24,1,27.59-.6,42.79-1a121.45,121.45,0,0,0,15.07-1.74,8,8,0,0,0,3.1-.51l3.72-.66c3.05-.44,6.1-.94,9.06-1.57l-9.06,1.57-3.41.53a11.23,11.23,0,0,1,3.23-.93c-10.52,1.39-21.28,2.49-32.19,3.09s-22,.77-33,.6c1.32-.17,3.2-.34,4-.47-2.17.18-4.34.3-6.52.44-7.14-.13-14.28-.37-21.42-.65a57.23,57.23,0,0,0,5.87-.32c-20.29-1.18-40.62-2.95-61-4.72-19.06-2.25-37.86-4.95-56.57-7.78,5,1.11,10.14,2,15.37,2.9s10.56,1.68,15.95,2.41c-28.74-3.06-57.49-7.09-85.69-13.27,5.29.07,12.43.74,15.82.19-.1-.59-9.18-2.46-3.82-1.81q3.68.38,7.07.82l6.53.8,11.45,1.55c6.92.82,12.46,1.15,16.64.18,1.6-.64-19.64-6.82-12.53-6.41,5.91.55,16.38,1.93,27.74,3.15,3.25.5,6.63,1,10.14,1.45a7.69,7.69,0,0,0,2.14-.07l17.44,1.92c5.29.56,9.84,1.08,13.08,1.52,2.41.33,4.79.64,7.18.93a16.64,16.64,0,0,1,3.09,1c1.53-.08,3.06-.09,4.58-.06,6.39.76,12.73,1.47,19,2.08,3.47.57,6.93,1.15,10.36,1.64-.06-.21-.59-.52.08-.66,7.84.67,15.61,1.21,23.34,1.57a82.23,82.23,0,0,1,8.56,1.44c4.23-.78,11.15-.85,18.68-1s15.66-.34,22.32-1l0-.06q10.07-.81,20.34-2.1c1.15,0,2.25.07,3.29.16,1.65-.53,3.43-.78,4.26-1.07,5.49-.58,10.17-.93,14.86-1.36a22,22,0,0,1,4.1-1.47c3.59-.57,7.06-1.23,10.44-1.91l12.12-2.13,40.77-7.17a1.29,1.29,0,0,1,.81.63c2-.8,4.91-1.17,6.7-1.81-.33.18-.53.34-.44.47a46.27,46.27,0,0,1,6.49-1.6c1.74-.28,3.43-.45,6.13-1.05,1.2-.33,2.26-.9,3.42-1.3l1.77-.42c6.38-.45,12.21-2.72,18.73-5a190.06,190.06,0,0,0,19.48-7.06C574.29,43.11,576.52,42.86,580.09,41.41Z"/><path class="cls-1" d="M381.28,81.24c6.46,0,12.91-.14,19.38-.44C393.73,81.4,387.55,82.27,381.28,81.24Z"/><path class="cls-1" d="M203.65,64.15a74,74,0,0,0-8.36-2.55l12.33,2.08L220,65.54l6.21.93,6.24.83L245,69v.06c-6.75-.78-15-2-22.53-3.11S208,64,203.65,64.15Z"/><path class="cls-1" d="M363.59,81c.26-.07.58-.12.92-.18h.06A5.05,5.05,0,0,1,363.59,81Z"/><path class="cls-1" d="M170.12,69.33l-1.6-.31,12.27,1.92C177.5,70.56,173.86,70,170.12,69.33Z"/><path class="cls-1" d="M126.8,59.24c-8.2-2-16.44-3.87-24.57-6.16C97,51.51,91.88,50,86.9,48.13q-3.74-1.32-7.4-2.68c-2.44-.91-4.86-1.78-7.19-2.81,2.21.83,4.46,1.53,6.71,2.27l6.73,2.21,6.74,2.22L99.3,51.4c4.55,1.34,9.08,2.78,13.67,4.06Z"/><path class="cls-1" d="M172.09,57.94c-3.35-.81-6.68-1.88-10.05-2.83,3.42.74,6.79,1.55,10.21,2.18C171.57,57.37,172.06,57.73,172.09,57.94Z"/><path class="cls-1" d="M204.4,74.62l-2.5-.39q3.24.28,6.5.45C207.6,74.7,205.72,74.65,204.4,74.62Z"/><path class="cls-1" d="M136.19,48.89l7.41,1.89c-1.5-.23-3-.4-4.51-.52A16.18,16.18,0,0,0,136.19,48.89Z"/><path class="cls-1" d="M97.83,38.88c-3.36-1-6.56-2.07-9.65-3.1,3.87,1.12,7.81,2.35,11.76,3.36A7.84,7.84,0,0,1,97.83,38.88Z"/><text class="cls-2" transform="translate(273.77 58.36)">klik og se mere</text></g></g></svg>