<svg xmlns="http://www.w3.org/2000/svg" viewBox="0 0 187.52 72.68"><defs><style>.cls-1{fill:#a6bfc8;}.cls-2{font-size:13px;fill:#707070;font-family:JosefinSans-SemiBold, Josefin Sans;font-weight:600;}</style></defs><g id="Lag_2" data-name="Lag 2"><g id="Hår"><path class="cls-1" d="M31.43,10.59c-6.52-.64-13-1.73-19-2.63L19.56,9C16,8.5,13,7.93,9.47,7.06c1.14-.1,3.43.53,4.06.24,8.63,1.43,17.25,3.16,25.68,4.62C35.73,12.37,33.8,10.9,31.43,10.59Z"/><path class="cls-1" d="M0,4.91l2.54.45C1.65,5.23.77,5.1,0,4.91Z"/><path class="cls-1" d="M89.26,12c1,0,2,0,3,0C91.26,12.1,90.26,12.06,89.26,12Z"/><path class="cls-1" d="M43.08,9.92c.53,0,1.06,0,1.59,0,4,.56,8,1.11,12.11,1.62C52.32,11,47.5,10.9,43.08,9.92Z"/><path class="cls-1" d="M38.87,8.59A95.72,95.72,0,0,1,26.94,6.47C30.73,7.32,34.76,8,38.87,8.59Z"/><path class="cls-1" d="M119.9,8.11c0-.07.07-.13.19-.17a1.59,1.59,0,0,0,.33-.09c1.67.14,3.35.31,5,.5-.42,0-.82.15-1.24.13C122.36,8.29,122,7.93,119.9,8.11Z"/><path class="cls-1" d="M88.15,12l-.1,0H87l-.12,0Z"/><path class="cls-1" d="M117.78,8a.68.68,0,0,0-.21-.4l2.83.22-.31.09A20.34,20.34,0,0,0,117.78,8Z"/><path class="cls-1" d="M96.72,6.56a4.87,4.87,0,0,0-1.4.33c-1.52-.23-3-.49-4.83-.67-.28.06-.87,0-1.43.17a9.94,9.94,0,0,0-1-.34l12.15.61C99,6.65,97.9,6.62,96.72,6.56Z"/><path class="cls-1" d="M174.68,48.73a32.43,32.43,0,0,0-.32-8.87,23.83,23.83,0,0,0-1.28-4.31,17,17,0,0,0-2.14-3.7,27.83,27.83,0,0,1,2.71,9.58c.24,3.07-.31,5.42-1,5.8s-.43-1.59-.62-4.26a22.67,22.67,0,0,0-1.91-8.11c.14.61.12.61.24,1.22a3.29,3.29,0,0,0-.61-1.65c.33,1.2.92,3.48.66,4.23-.19-.31-.38-.61-.6-.9,0,1.55.29,3.63.2,5.67a12.79,12.79,0,0,1-1.16,5.26,17.28,17.28,0,0,0,.36-11,22.83,22.83,0,0,0-6.93-10.86,37.07,37.07,0,0,0-12.08-7,66.56,66.56,0,0,0-13.68-3.27,83.29,83.29,0,0,0-15-.17c-4.89.34-9.63.94-14.31,1.5a89.15,89.15,0,0,1-9-.2c-5.37.08-10.74.06-16.06.28-11.34,0-22.22-1.6-34.24-2.72-2.4-.22-5.54-1.81.39-1.52,4.92.1,9.87.43,14.82.83-.61.33-2.95-.08-4.07.1a102.81,102.81,0,0,0,10.23,1.12c-2.39-.13-4.78-.31-7.18-.47,6,.44,12.59.93,19.16,1.08,2.39.08,4.44,1.45,7.87.69-8.53-.78-17.28-1.8-26-2.52l.05,0c-3.91-.26-7.42-.65-11.18-1,1.17.07,2.37.11,3.39.28-5.43-.87-10.8-1.54-16.18-2.27,15.32.56,32.17,2.89,47.66,3.09C82.51,13.8,76.7,14.4,73,13.34L94.39,14.7c-.54,0-1.07.05-1.6.11,4.49.61,9.32.35,13.82.52l1.21.05-1.21-.05c-4.14-.19-8.21-.41-12.22-.63a53.84,53.84,0,0,1,6.14.09,38.47,38.47,0,0,0-4.9-.63c-2.39-.08-4.78-.22-7.15-.34a102.59,102.59,0,0,0,10.61-.18c-5-.39-10.07-.59-15-1,2.74.1,5.48.16,8.22.21q6.87.45,13.89.68l-.54,0h1.07l5.52.12a46.5,46.5,0,0,0,4.89-.32h.82c-.52.12-.77.24.22.32,4.23.44,8.87,0,13.64,1,1.25.25,2.95.39,4.78.56a1.7,1.7,0,0,0,1,.1l1.19.13c1,.17,1.93.35,2.88.47-.93-.2-1.91-.33-2.88-.47l-1.08-.15a2.31,2.31,0,0,1,1.08-.06,118.06,118.06,0,0,0-20.83-1.86l1.29-.24-2.11.24c-2.3,0-4.6,0-6.91.07a13.56,13.56,0,0,0,1.89-.31l-19.81-.26c-6.21-.38-12.33-.93-18.44-1.43,3.27.56,6.71,1,10.22,1.22a275.5,275.5,0,0,1-28-2.15c1.72-.29,4.05-.38,5.15-.87,0-.27-3-.66-1.27-.66,6.4-.22,10.9.79,13.59-.61C74,8,67.06,5.94,69.38,5.79c1.92,0,5.34.12,9,.23,1.07.1,2.17.2,3.31.26a1.63,1.63,0,0,0,.69-.13c4,.15,7.81.3,9.91.47l2.34.19a3.82,3.82,0,0,1,1,.37c.49-.1,1-.16,1.47-.21,2.08.14,4.13.26,6.17.33,1.13.16,2.26.33,3.38.47,0-.1-.2-.24,0-.33,2.55.09,5.1.13,7.66.18a16,16,0,0,1,2.85.62c2.81-.85,9.34-.14,14,.19v0c2.32.23,4.67.52,7,.93a11.62,11.62,0,0,1,1.06.48c.61-.05,1.24.07,1.54,0a40.62,40.62,0,0,1,5,1.64,5.55,5.55,0,0,1,1.54,0c1.22.39,2.41.75,3.56,1.15,1.33.5,2.66,1.07,4,1.7a41.52,41.52,0,0,1,12.1,8.5.62.62,0,0,1-.1.45,17.15,17.15,0,0,1,1.86,1.71c-.12-.06-.22-.09-.26,0a7.28,7.28,0,0,1,1.6,1.86c.36.54.61,1.12,1.15,2,.26.38.6.67.88,1,.11.19.22.38.32.59.61,2.3,1.73,4.24,2.47,6.69a29.48,29.48,0,0,1,.78,7.53A12,12,0,0,1,174.68,48.73Z"/><path class="cls-1" d="M126.06,8.43q3.3.38,6.57,1C130.26,9.11,128.14,9.17,126.06,8.43Z"/><path class="cls-1" d="M67.84,5.28a16.09,16.09,0,0,0-2.76-.81c5.39.5,10.76.86,16.24,1.2v0c-2.2-.06-4.87-.33-7.34-.5A23.25,23.25,0,0,0,67.84,5.28Z"/><path class="cls-1" d="M120.09,7.94l.31-.09h0A1.59,1.59,0,0,1,120.09,7.94Z"/><path class="cls-1" d="M57,9.78l-.53,0,4,.21C59.41,10,58.22,9.88,57,9.78Z"/><path class="cls-1" d="M42.71,7.93c-2.72-.25-5.44-.57-8.16-.87C31.08,6.48,27.68,5.86,24.48,5,30.51,6,36.57,7,42.71,7.93Z"/><path class="cls-1" d="M57.47,4c-1.1-.22-2.21-.48-3.32-.73l3.37.4C57.29,3.77,57.46,3.92,57.47,4Z"/><path class="cls-1" d="M68.21,10.42l-.82-.05,2.12-.12Z"/><path class="cls-1" d="M45.58,2.09,48,2.47c-.49,0-1,0-1.48.08A4.08,4.08,0,0,0,45.58,2.09Z"/><path class="cls-1" d="M32.75.52C31.62.36,30.53.19,29.49,0l4,.46A1.69,1.69,0,0,1,32.75.52Z"/><path class="cls-1" d="M158.06,43.27c-.73-1.63-1.2-3.37-1.74-4.9l.65,1.84a10,10,0,0,1-.53-2.76c.36.2.33.88.75.91a39.28,39.28,0,0,1,1.18,7.06C157.25,44.8,158.27,43.89,158.06,43.27Z"/><path class="cls-1" d="M156.1,34.79c.07.23.15.45.22.67A1.82,1.82,0,0,1,156.1,34.79Z"/><path class="cls-1" d="M166.13,57.43a3.8,3.8,0,0,1,.31.64A1.82,1.82,0,0,1,166.13,57.43Z"/><path class="cls-1" d="M161,45.64a3.37,3.37,0,0,1,.29.37c.22,1.08.42,2.18.62,3.3C161.64,48.1,160.91,47,161,45.64Z"/><path class="cls-1" d="M161.43,44.27a8.59,8.59,0,0,1-.46-3.34A15.43,15.43,0,0,0,161.43,44.27Z"/><path class="cls-1" d="M170.44,52.41c0-.11,0-.2,0-.28a.63.63,0,0,0,0-.16,1.13,1.13,0,0,0,.29.15c0,.08,0,.3-.07.34S170.58,51.93,170.44,52.41Z"/><path class="cls-1" d="M166,57.16l0,0-.13-.21v-.06A1,1,0,0,1,166,57.16Z"/><path class="cls-1" d="M170.32,52.48c0-.22,0-.44.05-.62l.12.11,0,.16C170.42,52.32,170.39,52.15,170.32,52.48Z"/><path class="cls-1" d="M170.09,50.65a4.52,4.52,0,0,0-.24.49c.09-.36.19-.68.25-.88,0,.08-.06.07-.17.23l.19-.4c0,.16,0,.37,0,.7C170.1,50.78,170.08,50.75,170.09,50.65Z"/><path class="cls-1" d="M183.72,44.36c-1,1.09-2.81,1.61-3.4,3.13,1.59-.73,3.49-2.08,4.47-1.25s-1.69,1.52-2.64,2.42l.44,0c-.22,0-.44,0-.46.24.44,0,1.11-.27,1.52-.07l0,.42c1.27.16,2.65-.71,3.91-.52a11.34,11.34,0,0,0-6.81,3.18,33.22,33.22,0,0,0-2.84,2.85c-1.16,1.28-2.31,2.55-3.42,3.76a68.85,68.85,0,0,0-4.22,6.06l-5.11,8.12h0a.76.76,0,0,1-.15-.21c-.05-.11-.1-.25-.15-.4-.11-.31-.22-.69-.34-1.1-.23-.82-.47-1.78-.66-2.58a67.71,67.71,0,0,0-3-6.78A72.21,72.21,0,0,1,158,53a43.22,43.22,0,0,0-1.22-4.54c-.21-.61.7-1.83,1.51-.39a13.35,13.35,0,0,1,1.72,3.67c-.42,0-.38-.71-.75-.92a9.9,9.9,0,0,0,.17,1.41l.07.34.16.58c.11.4.23.79.37,1.2l-.55-1.64-.34-1,.2.59c.09.28.18.57.28.86q.33,1.08.69,2.19c.47,1.48,1,3,1.5,4.36a10.24,10.24,0,0,1,.14,2.13c0,.79.18,1.59.72,1.84-.44-2.15-.88-4.34-1.31-6.49-.22-1-.45-2-.69-3l-.37-1.45-.29-1h0c-.35-1-.59-1.93-.9-2.91a2.39,2.39,0,0,1,.33.87,24.31,24.31,0,0,0-.81-4.39,21,21,0,0,1,2.6,6c.43,1.43.85,2.87,1.27,4.29s1,3,1.47,4.32A8,8,0,0,0,163.4,57a5.43,5.43,0,0,1-.47-2.65c.76,2.5,1.42,5.07,2.11,8a2.53,2.53,0,0,0-.28-.35c.23,2.34,1,3.66,1.46,5.44l.1.12.14-.13-.14.12-.1-.11q-.6-2.59-1.18-5.09a6.62,6.62,0,0,1,.71,2.11,16.61,16.61,0,0,0-.23-2.52c-.23-.84-.46-1.69-.68-2.53a7.94,7.94,0,0,0,1.37,2.72c-.32-2-.77-3.56-1.12-5.22l.84,2.26c.32,1.53.68,3.13,1.07,4.72l-.06-.12.05.15s0,.13.07.08l.11,0,1.05-1.07a11.07,11.07,0,0,0,1.16-1.82l.17-.2c-.12.32-.21.59,0,.46a6.23,6.23,0,0,0,1.49-1.48,5.13,5.13,0,0,1,1.66-1.49,4.32,4.32,0,0,0,1.12-1.21c.16,0,.2-.15.21-.29l.25-.35a4.8,4.8,0,0,0,.63-.77,8.38,8.38,0,0,0-.63.77l-.24.28a.72.72,0,0,1,.13-.47,63.77,63.77,0,0,0-4.63,4.55l.31-.72c-.16.31-.33.62-.48.92-.49.57-1,1.17-1.51,1.85a7.64,7.64,0,0,0,.5-1c-.31.32-.63.67-1,1l-.08.06s-.07.08-.07,0l-.09-.26-.16-.52-.35-1c-.24-.67-.49-1.34-.73-2-.44-2.07-.82-4-1.22-5.74a15,15,0,0,0,.38,3.48c-.48-1.33-1-2.72-1.39-4.16a28.18,28.18,0,0,1-.92-3.94,6,6,0,0,0,1.68.94c.27-.1.12-.92.42-.5A10.29,10.29,0,0,1,166,51.11a.93.93,0,0,0,1.3.4,12.75,12.75,0,0,0,.93-1,1.93,1.93,0,0,1,1-.61,2.22,2.22,0,0,1,.48.27.61.61,0,0,0,0,.23s0,0,.13-.12a.5.5,0,0,1,.13.47l0,.25-.2.56.18-.28c0,.22,0,.45,0,.66s-.1.7-.12,1l.15-.64h0a1.43,1.43,0,0,0,.29-.19c0,.16,0,.41,0,.77.17-.8.28-1,.4-1.15s.29-.13.4-.33v0c.12-.1.24-.21.38-.31l.19.23c0-.18,0-.22,0-.3.16,0,.37.07.6.11,0-.08-.18-.33-.16-.36a5.51,5.51,0,0,0,.7-.67l.9-.69a34.8,34.8,0,0,1,3.22-2.1,1.48,1.48,0,0,1,.31.26c0-.27.32-.34.39-.53a.27.27,0,0,0,.08.17c.27-.56.58-.37,1-.62.09-.08.08-.25.13-.36l.16-.08c.85.1,1.15-.43,1.65-.83l1.8-.85C182.87,44.18,183.28,44.38,183.72,44.36Z"/><path class="cls-1" d="M170.82,52.13a1.87,1.87,0,0,0,.52.09C171.18,52.36,171,52.82,170.82,52.13Z"/><path class="cls-1" d="M169.53,49.67l.31-.16s.07-.08.09-.16a2,2,0,0,0,0-.24l.07.28,0,.06v.17l0,.23,0,0c-.07,0,0-.17,0-.23S170,49.58,169.53,49.67Z"/><path class="cls-1" d="M170.47,52.13l0-.16h0A.63.63,0,0,1,170.47,52.13Z"/><path class="cls-1" d="M163.61,48.81l0-.14c.17.33.33.67.48,1A3.38,3.38,0,0,1,163.61,48.81Z"/><path class="cls-1" d="M162.79,44.92,162,42.8a10.36,10.36,0,0,1-.2-2.89C162.16,41.56,162.47,43.24,162.79,44.92Z"/><path class="cls-1" d="M169.14,47.14c0-.33.08-.68.12-1,.06.31.13.62.2.93C169.35,47,169.23,47.1,169.14,47.14Z"/><path class="cls-1" d="M164.79,51.65l-.07-.21a5.35,5.35,0,0,0,.42.41C165.06,51.82,164.92,51.72,164.79,51.65Z"/><path class="cls-1" d="M168.83,43.72c0,.23.07.46.11.69a1.9,1.9,0,0,0-.36-.32A1.05,1.05,0,0,0,168.83,43.72Z"/><path class="cls-1" d="M167.75,40.26c-.08-.31-.15-.61-.2-.91l.41,1C167.84,40.34,167.73,40.31,167.75,40.26Z"/><text class="cls-2" transform="translate(80 34.22)">klik og se mere</text></g></g></svg>