<svg xmlns="http://www.w3.org/2000/svg" viewBox="0 0 482.94 89.5"><defs><style>.cls-1{fill:#b0c6ce;}</style></defs><g id="Lag_2" data-name="Lag 2"><g id="Hår"><path class="cls-1" d="M331.09,13.77h10.65c-60.36-5.15-124.28-2.51-181.24-8.7L146.2,1.22c-28.48-2.57-64-.71-92.41,2.11-14.2,1.43-24.52,13-24.52,13-3.49,2.16-6.91,6.37-3.31,8.31,7.13.79,24.86.32,25,4.41,0,1-3.51,1.12-7,1.22C44,34.37,33.6,42.86,30.06,43c-3.49,2.16-24.53,9-28,11.12-10.5,3.41,21.81,17.77,36,20.44,7.12,1.85.14,5.13.23,8.2,7-1.22,10.65,1.75,17.68.53,0,1,21.2,1.49,31.79,1.23,0,0,3.5-1.12,14.08-1.35,3.53-.08,3.5-1.11,3.48-2.13l.05,2c3.49-2.13,10.59-.24,14.1-1.34l0,2c7-2.21,14.1-.28,21.13-1.45l0,2.05c3.54-.06,7-.13,7.07.89l0,2c3.55,1,10.57-1.22,10.6.84l0-2.06a326.32,326.32,0,0,1,35.29,1.5c28.25,3.68,63.48,1.3,95.2-.91,3.53,0,7-2.08,3.51-4.11l10.58-.06c7.05,0,3.52-3.08,10.57-3.1,56.48-5.29,112.94.17,169.43-2.17-14.11-1.18-24.68-3.39-38.81-2.49,0-1,0-3.07-3.5-3.1-21.19-1.24-45.91.67-56.49-3.47-3.53-1-7-4.12-17.65-4.16l10.6,0V61c-14.14-1.09-31.82-2.11-46-3.14V54.78h-7.07c-7.09-7.18,31.85-6.2,49.55-7.15,0-1,0-3.07,0-4.09l-7.08,0V41.47c21.25.06,38.95.16,60.21.32l-14.18-.1c0-1,0-2-3.52-2.08,14.17.08,31.87,1.29,46.06-.63,3.55-1,0-4.11-10.57-5.23l-28.37-.24,0-2c7.09,0,17.72,1.17,24.82.21,3.56-1-7.07-3.14-3.51-4.13a37.78,37.78,0,0,0,10.66-.93c-10.66-.09-24.84.78-35.48-.3-3.54-1-7.08-2.09-7.07-4.14-17.74.89-31.91-2.18-42.55-7.36C359.52,12.76,341.74,13.77,331.09,13.77Z"/></g></g></svg>